<?xml version="1.0" encoding="utf-8"?>
<!-- Generator: Adobe Illustrator 19.0.0, SVG Export Plug-In . SVG Version: 6.00 Build 0)  -->
<svg version="1.1" xmlns="http://www.w3.org/2000/svg" xmlns:xlink="http://www.w3.org/1999/xlink" x="0px" y="0px"
	 viewBox="-164 42.3 512 512" style="enable-background:new -164 42.3 512 512;" xml:space="preserve">
<style type="text/css">
	.st0{fill:#EFA335;}
	.st1{fill:#FCCF3F;}
	.st2{fill:#EFC03C;}
	.st3{fill:#FFE497;}
	.st4{fill:#F4D484;}
	.st5{font-family:'Raleway-Black';}
	.st6{font-size:43px;}
</style>
<g id="Layer_1">
	<path class="st0" d="M340.6,232.6c0,0-0.1-2.4-0.1-14.7L15.3,51.6c-2.5-1.3-5.2-1.9-8-1.8c-90.9,2.3-163.8,76.7-163.8,168.1v14.7
		L340.6,232.6L340.6,232.6z"/>
	<path class="st1" d="M314,275.1c0-14.4,11.4-26.1,25.7-26.5c0.4,0,0.8-0.4,0.8-0.8v-30h-497v90.5c0,2.5,2.1,4.6,4.6,4.6h0.2
		c18.8,0,34,15.2,34,34s-15.2,34-34,34h0c-2.6,0-4.7,2.1-4.7,4.7v10.7c0,10,8.1,18.1,18.1,18.1h460.8c10,0,18.1-8.1,18.1-18.1v-94
		c0-0.4-0.3-0.8-0.8-0.8C325.5,301.2,314,289.5,314,275.1z"/>
	<path class="st2" d="M339.7,248.6c0.4,0,0.8-0.4,0.8-0.8v-30h-57.6v158c0,10-8.1,18.1-18.1,18.1h-421.3v2.4
		c0,10,8.1,18.1,18.1,18.1h460.8c10,0,18.1-8.1,18.1-18.1v-94c0-0.4-0.3-0.8-0.8-0.8c-14.3-0.4-25.7-12.1-25.7-26.5
		C314,260.8,325.5,249.1,339.7,248.6z"/>
	<path class="st3" d="M207.5,217.9c0-12.6-15.2-22.8-34-22.8s-34,10.2-34,22.8s15.2,22.8,34,22.8S207.5,230.5,207.5,217.9z"/>
	<path class="st3" d="M100.2,388c0,14.6-11.9,26.5-26.5,26.5S47.3,402.6,47.3,388s11.9-26.5,26.5-26.5S100.2,373.3,100.2,388z"/>
	<path class="st4" d="M99.5,393.9H48c2.7,11.7,13.2,20.5,25.8,20.5C86.3,414.4,96.8,405.7,99.5,393.9z"/>
	<g>
		<path class="st3" d="M4.7,282.1c0,22.9-18.6,41.6-41.6,41.6c-22.9,0-41.6-18.6-41.6-41.6s18.6-41.6,41.6-41.6
			C-13.9,240.5,4.7,259.1,4.7,282.1z"/>
		<path class="st3" d="M8.7,98.2c0-11.8-11.6-21.4-25.9-21.4c-14.3,0-25.9,9.6-25.9,21.4s11.6,21.4,25.9,21.4
			C-2.9,119.6,8.7,110,8.7,98.2z"/>
		<path class="st3" d="M276.8,347c0,22.3-18.1,40.4-40.4,40.4c-22.3,0-40.4-18.1-40.4-40.4s18.1-40.4,40.4-40.4
			C258.8,306.6,276.8,324.7,276.8,347z"/>
	</g>
	<path d="M339.9,256.1c4.5-0.1,8.1-3.8,8.1-8.3v-30c0,0,0,0,0-0.1c0-0.2,0-0.3,0-0.5c0-0.1,0-0.2,0-0.3c0-0.1,0-0.3-0.1-0.4
		s0-0.2-0.1-0.4c0-0.1,0-0.2-0.1-0.3c0-0.2-0.1-0.3-0.1-0.5c0-0.1,0-0.1-0.1-0.2c-0.1-0.2-0.1-0.4-0.2-0.5c0,0,0-0.1-0.1-0.1
		c-0.1-0.2-0.2-0.3-0.2-0.5c-0.1-0.1-0.1-0.2-0.2-0.3c-0.1-0.1-0.1-0.2-0.2-0.3c-0.1-0.1-0.2-0.3-0.3-0.4c0-0.1-0.1-0.1-0.1-0.2
		c-0.1-0.1-0.2-0.3-0.3-0.4c0-0.1-0.1-0.1-0.1-0.2c-0.1-0.1-0.2-0.2-0.3-0.3c-0.1-0.1-0.1-0.1-0.2-0.2c-0.1-0.1-0.2-0.1-0.3-0.2
		c-0.1-0.1-0.2-0.2-0.3-0.2c-0.1-0.1-0.2-0.1-0.2-0.1c-0.1-0.1-0.3-0.2-0.4-0.2c0,0,0,0-0.1,0L76.4,74.4c-3.7-1.9-8.2-0.4-10.1,3.3
		c-1.9,3.7-0.4,8.2,3.3,10.1l239.8,122.6h-66.7c-4.1,0-7.5,3.4-7.5,7.5c0,4.1,3.4,7.5,7.5,7.5H333V242
		c-15.3,3.4-26.5,16.9-26.5,33.2c0,16.3,11.2,29.8,26.5,33.2v88.1c0,5.8-4.7,10.6-10.6,10.6H101.9c3.7-5.4,5.8-12,5.8-19
		c0-18.7-15.2-34-34-34c-18.7,0-34,15.2-34,34c0,7,2.1,13.6,5.8,19h-184c-5.8,0-10.6-4.7-10.6-10.6v-8c21.6-1.4,38.7-19.4,38.7-41.4
		c0-21.9-17.1-40-38.7-41.4v-80.2h253.7c4.1,0,7.5-3.4,7.5-7.5c0-4.1-3.4-7.5-7.5-7.5h-253.5c1.8-39.4,17.8-76.3,45.5-104.7
		C-73.9,75.5-34.5,58.4,7.5,57.3c1.5,0,3.1,0.3,4.4,1l26.3,13.4c3.7,1.9,8.2,0.4,10.1-3.3c1.9-3.7,0.4-8.2-3.3-10.1L18.7,44.9
		c-3.6-1.8-7.6-2.7-11.6-2.6c-46,1.2-89,20-121.1,52.9c-32.2,33-50,76.6-50,122.7v90.5c0,6.7,5.4,12.1,12.1,12.1h0.2
		c14.6,0,26.5,11.9,26.5,26.5c0,14.6-11.9,26.5-26.5,26.5c-6.7,0-12.2,5.5-12.2,12.2v10.7c0,14.1,11.5,25.6,25.6,25.6h460.8
		c14.1,0,25.6-11.5,25.6-25.6v-94c0-4.5-3.5-8.1-8.1-8.3c-10.3-0.3-18.4-8.6-18.4-19C321.5,264.8,329.6,256.4,339.9,256.1z
		 M73.8,406.9c-10.5,0-19-8.5-19-19s8.5-19,19-19c10.5,0,19,8.5,19,19S84.2,406.9,73.8,406.9z"/>
	<path d="M173.5,187.6c-23.3,0-41.5,13.3-41.5,30.3c0,17,18.2,30.3,41.5,30.3s41.5-13.3,41.5-30.3
		C215,200.9,196.8,187.6,173.5,187.6z M173.5,233.2c-12.5,0-26.5-6.3-26.5-15.3s13.9-15.3,26.5-15.3s26.5,6.3,26.5,15.3
		S186,233.2,173.5,233.2z"/>
	<path d="M-85.9,282.1c0,27,22,49.1,49.1,49.1c27.1,0,49.1-22,49.1-49.1S-9.8,233-36.8,233C-63.9,233-85.9,255-85.9,282.1z
		 M-2.8,282.1c0,18.8-15.3,34.1-34.1,34.1s-34.1-15.3-34.1-34.1S-55.6,248-36.8,248S-2.8,263.3-2.8,282.1z"/>
	<path d="M-17.2,69.4c-18.4,0-33.4,12.9-33.4,28.9s15,28.9,33.4,28.9c18.4,0,33.4-12.9,33.4-28.9S1.2,69.4-17.2,69.4z M-17.2,112.1
		c-10,0-18.4-6.4-18.4-13.9c0-7.5,8.4-13.9,18.4-13.9c10,0,18.4,6.4,18.4,13.9S-7.2,112.1-17.2,112.1z"/>
	<path d="M188.6,347c0,26.4,21.5,47.9,47.9,47.9s47.9-21.5,47.9-47.9s-21.5-47.9-47.9-47.9S188.6,320.6,188.6,347z M236.5,314.1
		c18.1,0,32.9,14.8,32.9,32.9s-14.7,32.9-32.9,32.9s-32.9-14.7-32.9-32.9S218.3,314.1,236.5,314.1z"/>
	<text transform="matrix(1 0 0 1 -157.0928 466.5604)" class="st5 st6">DE KAASSPECIAALZAAK</text>
</g>
<g id="Layer_2">
</g>
</svg>
